<?xml version="1.0" encoding="UTF-8"?>
<!DOCTYPE svg PUBLIC "-//W3C//DTD SVG 1.1//EN" "http://www.w3.org/Graphics/SVG/1.1/DTD/svg11.dtd">
<svg xmlns="http://www.w3.org/2000/svg" version="1.1" width="778px" height="778px" style="shape-rendering:geometricPrecision; text-rendering:geometricPrecision; image-rendering:optimizeQuality; fill-rule:evenodd; clip-rule:evenodd" xmlns:xlink="http://www.w3.org/1999/xlink">
<g><path style="opacity:0.963" fill="#000000" d="M 599.5,300.5 C 597.031,299.683 594.365,299.183 591.5,299C 554.664,298.169 517.998,298.336 481.5,299.5C 471.168,298.445 461.501,295.278 452.5,290C 441.5,280.333 430.5,270.667 419.5,261C 411.121,254.812 401.788,250.812 391.5,249C 380.5,248.333 369.5,248.333 358.5,249C 362.703,276.577 376.703,297.91 400.5,313C 411.692,319.286 423.692,322.953 436.5,324C 479.5,324.333 522.5,324.667 565.5,325C 609.546,324.556 646.712,340.056 677,371.5C 707.394,407.803 717.061,449.136 706,495.5C 696.014,535.794 672.514,564.961 635.5,583C 603.943,595.518 571.277,599.518 537.5,595C 521.167,592.002 505.501,587.002 490.5,580C 471.57,568.202 451.57,558.535 430.5,551C 400.574,543.395 374.907,550.562 353.5,572.5C 350.916,584.559 347.749,596.559 344,608.5C 335.785,626.383 322.285,638.217 303.5,644C 288.539,645.23 273.539,645.897 258.5,646C 256.996,659.2 251.662,670.533 242.5,680C 237.34,683.499 231.674,685.833 225.5,687C 212.838,687.5 200.171,687.667 187.5,687.5C 176.332,686.693 164.999,686.026 153.5,685.5C 148.276,686.766 142.943,687.432 137.5,687.5C 131.917,686.771 126.417,686.771 121,687.5C 120.544,686.256 121.044,685.423 122.5,685C 118.613,682.779 116.613,683.946 116.5,688.5C 114.058,686.861 113.891,684.861 116,682.5C 143.986,653.475 170.319,623.142 195,591.5C 226.334,553.828 260.167,518.328 296.5,485C 329.101,460.125 365.934,446.292 407,443.5C 425.376,444.309 443.209,447.809 460.5,454C 476.076,460.788 491.41,468.121 506.5,476C 527.131,486.281 548.798,489.281 571.5,485C 586.116,480.866 597.116,472.199 604.5,459C 604.167,458.667 603.833,458.333 603.5,458C 601.169,458.157 598.836,458.657 596.5,459.5C 596.38,458.414 595.713,457.747 594.5,457.5C 590.78,458.12 587.114,458.953 583.5,460C 584.056,460.383 584.389,460.883 584.5,461.5C 560.555,464.916 537.222,462.082 514.5,453C 495.102,443.309 475.102,434.976 454.5,428C 422.324,418.878 390.324,419.545 358.5,430C 335.275,438.112 313.608,449.112 293.5,463C 283.5,471 273.5,479 263.5,487C 259.05,489.261 254.383,490.928 249.5,492C 195.191,493.632 140.858,493.965 86.5,493C 85.6433,492.311 84.9767,491.478 84.5,490.5C 94.6935,466.47 111.36,448.303 134.5,436C 146.001,432.643 157.668,431.643 169.5,433C 162.223,421.394 151.889,414.06 138.5,411C 98.168,410.5 57.8347,410.333 17.5,410.5C 17.1913,407.801 16.8579,405.468 16.5,403.5C 32.708,387.354 48.208,370.687 63,353.5C 97.1575,317.419 137.991,307.252 185.5,323C 209.353,330.831 228.853,344.664 244,364.5C 254.274,380.729 265.274,396.396 277,411.5C 279.804,407.557 281.804,403.223 283,398.5C 284.946,384.228 282.279,370.895 275,358.5C 267.824,347.48 260.157,336.814 252,326.5C 234.275,300.156 229.275,271.489 237,240.5C 249.722,201.778 275.888,177.612 315.5,168C 327.738,165.865 340.072,165.032 352.5,165.5C 355.939,167.958 359.606,168.125 363.5,166C 362.584,165.722 361.918,165.222 361.5,164.5C 367.833,164.5 374.167,164.5 380.5,164.5C 381.145,165.812 382.145,166.812 383.5,167.5C 384.5,166.167 385.5,166.167 386.5,167.5C 387.59,166.609 387.59,165.609 386.5,164.5C 382.118,160.787 377.451,157.454 372.5,154.5C 364.689,155.34 357.022,156.34 349.5,157.5C 298.145,156.754 260.645,133.754 237,88.5C 230.67,75.52 228.004,61.8533 229,47.5C 230.399,46.7734 231.899,46.2734 233.5,46C 243.167,45.3333 252.833,45.3333 262.5,46C 263.938,46.2189 265.271,46.7189 266.5,47.5C 273.292,76.258 289.958,97.0913 316.5,110C 325.84,113.735 335.506,115.402 345.5,115C 330.409,95.393 323.576,73.2264 325,48.5C 325.5,47.3333 326.333,46.5 327.5,46C 337.833,45.3333 348.167,45.3333 358.5,46C 360.286,46.7845 361.786,47.9512 363,49.5C 370.97,86.1365 392.97,109.47 429,119.5C 430.404,119.491 431.57,118.991 432.5,118C 415.479,97.0823 409.146,73.2489 413.5,46.5C 423.786,45.3577 434.12,45.191 444.5,46C 446.259,47.008 447.426,48.508 448,50.5C 458.069,88.5768 480.236,117.41 514.5,137C 545.121,153.494 577.121,156.828 610.5,147C 620.5,146.333 630.5,146.333 640.5,147C 641.109,174.12 642.109,201.286 643.5,228.5C 643.167,231.833 642.833,235.167 642.5,238.5C 604.224,238.398 565.89,238.565 527.5,239C 518.047,239.817 509.381,242.817 501.5,248C 500.257,249.154 499.257,250.488 498.5,252C 545.775,253.319 593.108,253.986 640.5,254C 641.893,255.171 642.727,256.671 643,258.5C 643.963,272.261 643.63,285.928 642,299.5C 636.998,301.027 631.831,301.694 626.5,301.5C 617.506,300.959 608.506,300.625 599.5,300.5 Z M 510.5,170.5 C 525.272,171.769 532.439,179.769 532,194.5C 526.039,208.604 515.872,212.771 501.5,207C 491.209,198.219 490.042,188.386 498,177.5C 501.739,174.219 505.905,171.885 510.5,170.5 Z"/></g>
<g><path style="opacity:0.963" fill="#121212" d="M 380.5,164.5 C 379.791,163.596 378.791,163.263 377.5,163.5C 377.556,160.439 376.222,158.272 373.5,157C 365.53,157.275 357.53,157.442 349.5,157.5C 357.022,156.34 364.689,155.34 372.5,154.5C 377.451,157.454 382.118,160.787 386.5,164.5C 387.59,165.609 387.59,166.609 386.5,167.5C 385.5,166.167 384.5,166.167 383.5,167.5C 382.145,166.812 381.145,165.812 380.5,164.5 Z"/></g>
<g><path style="opacity:0.882" fill="#1b1b1b" d="M 361.5,164.5 C 361.918,165.222 362.584,165.722 363.5,166C 359.606,168.125 355.939,167.958 352.5,165.5C 355.43,164.701 358.43,164.368 361.5,164.5 Z"/></g>
<g><path style="opacity:0.087" fill="#0e0e0e" d="M 481.5,299.5 C 517.998,298.336 554.664,298.169 591.5,299C 594.365,299.183 597.031,299.683 599.5,300.5C 560.094,300.827 520.761,300.494 481.5,299.5 Z"/></g>
<g><path style="opacity:0.893" fill="#1b1b1b" d="M 16.5,403.5 C 16.8579,405.468 17.1913,407.801 17.5,410.5C 10.0062,409.705 9.67289,407.372 16.5,403.5 Z"/></g>
<g><path style="opacity:0.383" fill="#0f0f0f" d="M 596.5,459.5 C 592.658,461.002 588.658,461.668 584.5,461.5C 584.389,460.883 584.056,460.383 583.5,460C 587.114,458.953 590.78,458.12 594.5,457.5C 595.713,457.747 596.38,458.414 596.5,459.5 Z"/></g>
<g><path style="opacity:0.939" fill="#000000" d="M 446.5,590.5 C 472.956,598.813 499.956,604.98 527.5,609C 528.126,609.75 528.626,610.584 529,611.5C 529.286,618.2 529.786,624.867 530.5,631.5C 539.433,632.884 547.266,636.551 554,642.5C 566.258,655.509 576.424,670.009 584.5,686C 584.167,686.333 583.833,686.667 583.5,687C 543.494,687.227 503.494,687.727 463.5,688.5C 457.794,688.431 452.127,687.931 446.5,687C 446.34,654.912 446.34,622.746 446.5,590.5 Z"/></g>
<g><path style="opacity:0.914" fill="#000000" d="M 596.5,622.5 C 610.504,622.333 624.504,622.5 638.5,623C 650.911,623.243 661.577,627.576 670.5,636C 683.92,649.748 695.42,664.914 705,681.5C 706.128,683.345 706.628,685.345 706.5,687.5C 669.5,687.5 632.5,687.5 595.5,687.5C 594.368,666.864 594.201,646.197 595,625.5C 595.513,624.473 596.013,623.473 596.5,622.5 Z"/></g>
<g><path style="opacity:0.82" fill="#0d0d0d" d="M 187.5,687.5 C 165.477,687.622 143.477,688.289 121.5,689.5C 119.793,689.272 118.126,688.938 116.5,688.5C 116.613,683.946 118.613,682.779 122.5,685C 121.044,685.423 120.544,686.256 121,687.5C 126.417,686.771 131.917,686.771 137.5,687.5C 142.943,687.432 148.276,686.766 153.5,685.5C 164.999,686.026 176.332,686.693 187.5,687.5 Z"/></g>
</svg>
